<svg xmlns="http://www.w3.org/2000/svg" viewBox="0 0 780 470" font-family="'Malgun Gothic','Apple SD Gothic Neo',sans-serif">
  <rect width="780" height="470" fill="#f8fafc"/>
  <text x="390" y="38" text-anchor="middle" font-size="22" font-weight="700" fill="#0f172a">전체 타임라인</text>

  <!-- Day 1 -->
  <rect x="30" y="65" width="720" height="150" rx="12" fill="#eff6ff" stroke="#3b82f6" stroke-width="2"/>
  <text x="55" y="93" font-size="16" font-weight="700" fill="#1d4ed8">Day 1 — 사전 준비 (한 번만)</text>

  <rect x="50" y="110" width="120" height="80" rx="8" fill="#dbeafe" stroke="#60a5fa"/>
  <text x="110" y="145" text-anchor="middle" font-size="12" font-weight="700" fill="#1e3a8a">환경 설정</text>
  <text x="110" y="165" text-anchor="middle" font-size="10" fill="#475569">에이전트 팀</text>
  <text x="110" y="179" text-anchor="middle" font-size="10" fill="#475569">기능 활성화</text>

  <rect x="188" y="110" width="120" height="80" rx="8" fill="#dbeafe" stroke="#60a5fa"/>
  <text x="248" y="145" text-anchor="middle" font-size="12" font-weight="700" fill="#1e3a8a">Harness 설치</text>
  <text x="248" y="167" text-anchor="middle" font-size="10" fill="#475569">스킬 폴더 복사</text>

  <rect x="326" y="110" width="120" height="80" rx="8" fill="#dbeafe" stroke="#60a5fa"/>
  <text x="386" y="145" text-anchor="middle" font-size="12" font-weight="700" fill="#1e3a8a">CLAUDE.md</text>
  <text x="386" y="167" text-anchor="middle" font-size="10" fill="#475569">초기 규칙 작성</text>

  <rect x="464" y="110" width="120" height="80" rx="8" fill="#dbeafe" stroke="#60a5fa"/>
  <text x="524" y="145" text-anchor="middle" font-size="12" font-weight="700" fill="#1e3a8a">에이전트 구성</text>
  <text x="524" y="167" text-anchor="middle" font-size="10" fill="#475569">팀 자동 생성</text>

  <rect x="602" y="110" width="128" height="80" rx="8" fill="#dbeafe" stroke="#60a5fa"/>
  <text x="666" y="145" text-anchor="middle" font-size="12" font-weight="700" fill="#1e3a8a">커스터마이징</text>
  <text x="666" y="167" text-anchor="middle" font-size="10" fill="#475569">역할 상세 정의</text>

  <path d="M172 150 L186 150" stroke="#3b82f6" stroke-width="2" fill="none" marker-end="url(#ab)"/>
  <path d="M310 150 L324 150" stroke="#3b82f6" stroke-width="2" fill="none" marker-end="url(#ab)"/>
  <path d="M448 150 L462 150" stroke="#3b82f6" stroke-width="2" fill="none" marker-end="url(#ab)"/>
  <path d="M586 150 L600 150" stroke="#3b82f6" stroke-width="2" fill="none" marker-end="url(#ab)"/>

  <!-- arrow down -->
  <path d="M390 218 L390 248" stroke="#94a3b8" stroke-width="2.5" fill="none" marker-end="url(#a)"/>

  <!-- Day 2~ -->
  <rect x="30" y="255" width="720" height="165" rx="12" fill="#f0fdf4" stroke="#22c55e" stroke-width="2"/>
  <text x="55" y="283" font-size="16" font-weight="700" fill="#15803d">Day 2~ — 기능 개발 반복</text>

  <rect x="55" y="300" width="115" height="55" rx="8" fill="#dcfce7" stroke="#22c55e"/>
  <text x="112" y="325" text-anchor="middle" font-size="12" font-weight="700" fill="#166534">기능 1 사이클</text>
  <text x="112" y="343" text-anchor="middle" font-size="10" fill="#15803d">(위 사이클 반복)</text>

  <rect x="188" y="300" width="115" height="55" rx="8" fill="#dcfce7" stroke="#22c55e"/>
  <text x="245" y="331" text-anchor="middle" font-size="12" font-weight="700" fill="#166534">기능 2 사이클</text>

  <rect x="321" y="300" width="115" height="55" rx="8" fill="#dcfce7" stroke="#22c55e"/>
  <text x="378" y="331" text-anchor="middle" font-size="12" font-weight="700" fill="#166534">기능 3 사이클</text>

  <rect x="454" y="300" width="130" height="55" rx="8" fill="#fef2f2" stroke="#ef4444" stroke-width="2"/>
  <text x="519" y="325" text-anchor="middle" font-size="12" font-weight="700" fill="#b91c1c">통합 테스트</text>
  <text x="519" y="343" text-anchor="middle" font-size="10" fill="#b91c1c">3~5개 기능마다</text>

  <rect x="602" y="300" width="128" height="55" rx="8" fill="#dcfce7" stroke="#22c55e"/>
  <text x="666" y="325" text-anchor="middle" font-size="12" font-weight="700" fill="#166534">기능 4 · · ·</text>
  <text x="666" y="343" text-anchor="middle" font-size="10" fill="#15803d">계속 반복</text>

  <path d="M172 327 L186 327" stroke="#22c55e" stroke-width="2" fill="none" marker-end="url(#ag)"/>
  <path d="M305 327 L319 327" stroke="#22c55e" stroke-width="2" fill="none" marker-end="url(#ag)"/>
  <path d="M438 327 L452 327" stroke="#22c55e" stroke-width="2" fill="none" marker-end="url(#ag)"/>
  <path d="M586 327 L600 327" stroke="#22c55e" stroke-width="2" fill="none" marker-end="url(#ag)"/>

  <text x="390" y="395" text-anchor="middle" font-size="12" fill="#64748b">각 "기능 사이클" 안에서 architect → reviewer → tester → dev A·B·C → reviewer 가 자동 반복된다</text>

  <defs>
    <marker id="a" markerWidth="9" markerHeight="9" refX="7" refY="4" orient="auto"><path d="M0 0 L8 4 L0 8 z" fill="#94a3b8"/></marker>
    <marker id="ab" markerWidth="9" markerHeight="9" refX="7" refY="4" orient="auto"><path d="M0 0 L8 4 L0 8 z" fill="#3b82f6"/></marker>
    <marker id="ag" markerWidth="9" markerHeight="9" refX="7" refY="4" orient="auto"><path d="M0 0 L8 4 L0 8 z" fill="#22c55e"/></marker>
  </defs>
</svg>